<svg width="42" height="42" viewBox="0 0 42 42" fill="none" xmlns="http://www.w3.org/2000/svg">
<g clip-path="url(#clip0_64_813)">
<path d="M21 42C32.598 42 42 32.598 42 21C42 9.40202 32.598 0 21 0C9.40202 0 0 9.40202 0 21C0 32.598 9.40202 42 21 42Z" fill="url(#paint0_radial_64_813)"/>
<path d="M21 42C32.598 42 42 32.598 42 21C42 9.40202 32.598 0 21 0C9.40202 0 0 9.40202 0 21C0 32.598 9.40202 42 21 42Z" fill="url(#paint1_radial_64_813)"/>
<path d="M21.0011 8.40002C17.5792 8.40002 17.1497 8.41499 15.8057 8.47615C14.4643 8.53757 13.5487 8.74994 12.7475 9.06152C11.9188 9.38334 11.2158 9.81384 10.5155 10.5145C9.81461 11.2148 9.38411 11.9178 9.06124 12.7462C8.74884 13.5476 8.53622 14.4635 8.47584 15.8044C8.41573 17.1484 8.39998 17.5781 8.39998 21C8.39998 24.422 8.41521 24.8501 8.47611 26.1941C8.53779 27.5355 8.75017 28.4511 9.0615 29.2522C9.38359 30.0809 9.81409 30.7839 10.5147 31.4843C11.2148 32.1851 11.9178 32.6167 12.7459 32.9385C13.5476 33.2501 14.4635 33.4625 15.8047 33.5239C17.1487 33.5851 17.5779 33.6 20.9996 33.6C24.4219 33.6 24.85 33.5851 26.194 33.5239C27.5354 33.4625 28.452 33.2501 29.2537 32.9385C30.0822 32.6167 30.7841 32.1851 31.4842 31.4843C32.1851 30.7839 32.6156 30.0809 32.9385 29.2525C33.2483 28.4511 33.4609 27.5352 33.5239 26.1944C33.5842 24.8504 33.6 24.422 33.6 21C33.6 17.5781 33.5842 17.1486 33.5239 15.8046C33.4609 14.4632 33.2483 13.5476 32.9385 12.7465C32.6156 11.9178 32.1851 11.2148 31.4842 10.5145C30.7833 9.81358 30.0824 9.38308 29.2529 9.06152C28.4497 8.74994 27.5335 8.53757 26.1922 8.47615C24.8482 8.41499 24.4203 8.40002 20.9972 8.40002H21.0011ZM19.8708 10.6706C20.2063 10.6701 20.5806 10.6706 21.0011 10.6706C24.3654 10.6706 24.7642 10.6827 26.0927 10.7431C27.3212 10.7993 27.9879 11.0045 28.4321 11.177C29.0201 11.4054 29.4393 11.6784 29.88 12.1194C30.321 12.5604 30.594 12.9804 30.8229 13.5684C30.9954 14.012 31.2009 14.6788 31.2568 15.9073C31.3172 17.2355 31.3303 17.6345 31.3303 20.9971C31.3303 24.3598 31.3172 24.7588 31.2568 26.087C31.2007 27.3155 30.9954 27.9823 30.8229 28.4259C30.5946 29.0139 30.321 29.4326 29.88 29.8733C29.439 30.3143 29.0203 30.5873 28.4321 30.8157C27.9885 30.9889 27.3212 31.1937 26.0927 31.2499C24.7644 31.3102 24.3654 31.3234 21.0011 31.3234C17.6367 31.3234 17.2379 31.3102 15.9097 31.2499C14.6812 31.1932 14.0143 30.9879 13.5699 30.8154C12.9819 30.587 12.5619 30.314 12.1209 29.873C11.6799 29.432 11.4069 29.0131 11.178 28.4248C11.0056 27.9812 10.8 27.3145 10.7441 26.086C10.6837 24.7577 10.6717 24.3587 10.6717 20.994C10.6717 17.6293 10.6837 17.2324 10.7441 15.9041C10.8003 14.6756 11.0056 14.0089 11.178 13.5647C11.4064 12.9767 11.6799 12.5567 12.1209 12.1157C12.5619 11.6747 12.9819 11.4017 13.5699 11.1728C14.0141 10.9996 14.6812 10.7948 15.9097 10.7384C17.072 10.6859 17.5225 10.6701 19.8708 10.6675V10.6706ZM27.727 12.7628C26.8923 12.7628 26.215 13.4392 26.215 14.2742C26.215 15.109 26.8923 15.7862 27.727 15.7862C28.5618 15.7862 29.239 15.109 29.239 14.2742C29.239 13.4395 28.5618 12.7628 27.727 12.7628ZM21.0011 14.5294C17.4277 14.5294 14.5304 17.4266 14.5304 21C14.5304 24.5734 17.4277 27.4693 21.0011 27.4693C24.5746 27.4693 27.4708 24.5734 27.4708 21C27.4708 17.4266 24.5746 14.5294 21.0011 14.5294ZM21.0011 16.8C23.3207 16.8 25.2012 18.6803 25.2012 21C25.2012 23.3195 23.3207 25.2 21.0011 25.2C18.6814 25.2 16.8011 23.3195 16.8011 21C16.8011 18.6803 18.6814 16.8 21.0011 16.8Z" fill="white"/>
</g>
<defs>
<radialGradient id="paint0_radial_64_813" cx="0" cy="0" r="1" gradientUnits="userSpaceOnUse" gradientTransform="translate(11.1563 45.2349) rotate(-90) scale(41.6251 38.7146)">
<stop stop-color="#FFDD55"/>
<stop offset="0.1" stop-color="#FFDD55"/>
<stop offset="0.5" stop-color="#FF543E"/>
<stop offset="1" stop-color="#C837AB"/>
</radialGradient>
<radialGradient id="paint1_radial_64_813" cx="0" cy="0" r="1" gradientUnits="userSpaceOnUse" gradientTransform="translate(-7.03522 3.02561) rotate(78.6806) scale(18.6066 76.6972)">
<stop stop-color="#3771C8"/>
<stop offset="0.128" stop-color="#3771C8"/>
<stop offset="1" stop-color="#6600FF" stop-opacity="0"/>
</radialGradient>
<clipPath id="clip0_64_813">
<rect width="42" height="42" fill="white"/>
</clipPath>
</defs>
</svg>
