<svg width="42" height="42" viewBox="0 0 42 42" fill="none" xmlns="http://www.w3.org/2000/svg">
<g clip-path="url(#clip0_64_817)">
<path d="M21 42C32.598 42 42 32.598 42 21C42 9.40202 32.598 0 21 0C9.40202 0 0 9.40202 0 21C0 32.598 9.40202 42 21 42Z" fill="#303030"/>
<path fill-rule="evenodd" clip-rule="evenodd" d="M18.5493 18.0995V17.0346C18.1798 16.9823 17.8071 16.9551 17.4339 16.9533C12.8695 16.9533 9.15609 20.6674 9.15609 25.2318C9.15609 28.0317 10.5554 30.5102 12.69 32.0089C11.2607 30.4804 10.4661 28.4655 10.4673 26.3729C10.4673 21.8735 14.075 18.2045 18.5493 18.0995Z" fill="#00F2EA"/>
<path fill-rule="evenodd" clip-rule="evenodd" d="M18.7443 30.1531C20.7807 30.1531 22.4421 28.533 22.5177 26.5141L22.5246 8.49107H25.8172C25.7469 8.11476 25.7114 7.7328 25.7109 7.34998H21.2141L21.2066 25.3737C21.1316 27.3919 19.4696 29.0114 17.4338 29.0114C16.8226 29.0116 16.2205 28.8626 15.6799 28.5775C16.029 29.0644 16.4889 29.4613 17.0218 29.7353C17.5547 30.0093 18.1451 30.1525 18.7443 30.1531ZM31.968 14.6086V13.6069C30.7579 13.6081 29.5739 13.2561 28.561 12.594C29.449 13.6166 30.6441 14.3234 31.968 14.6086Z" fill="#00F2EA"/>
<path fill-rule="evenodd" clip-rule="evenodd" d="M28.5605 12.5933C27.5679 11.4575 27.0212 10.0001 27.0218 8.49164H25.817C25.973 9.32539 26.2966 10.1188 26.7682 10.8238C27.2398 11.5289 27.8495 12.1308 28.5605 12.5933ZM17.4336 21.4507C16.4314 21.4518 15.4705 21.8505 14.7618 22.5592C14.0531 23.2679 13.6545 24.2287 13.6533 25.231C13.6539 25.9205 13.843 26.5966 14.2001 27.1864C14.5571 27.7762 15.0686 28.2572 15.6791 28.5774C15.2142 27.9363 14.9639 27.1646 14.9639 26.3728C14.9649 25.3704 15.3634 24.4093 16.0721 23.7005C16.7808 22.9918 17.7418 22.5929 18.7442 22.5918C19.1337 22.5918 19.507 22.6562 19.8596 22.7669V18.1756C19.4901 18.1233 19.1174 18.0961 18.7442 18.0943C18.6785 18.0943 18.6141 18.0981 18.5491 18.0994V21.6258C18.1884 21.511 17.8121 21.4519 17.4336 21.4507Z" fill="#FF004F"/>
<path fill-rule="evenodd" clip-rule="evenodd" d="M31.9682 14.6086V18.1038C29.636 18.1038 27.4757 17.3578 25.7113 16.0917V25.2311C25.7113 29.7954 21.9985 33.5088 17.4341 33.5088C15.6703 33.5088 14.0346 32.9524 12.6903 32.0083C13.4632 32.8417 14.3999 33.5066 15.4417 33.9612C16.4835 34.4157 17.608 34.6502 18.7446 34.6499C23.309 34.6499 27.0225 30.9366 27.0225 26.3728V17.2334C28.8453 18.5442 31.0342 19.2481 33.2793 19.2455V14.7474C32.8292 14.7474 32.3914 14.6992 31.9682 14.6086Z" fill="#FF004F"/>
<path fill-rule="evenodd" clip-rule="evenodd" d="M25.7113 25.231V16.0917C27.534 17.4025 29.723 18.1065 31.9683 18.1037V14.6086C30.6445 14.323 29.449 13.616 28.5612 12.5933C27.8502 12.1308 27.2403 11.5289 26.7688 10.8238C26.2972 10.1188 25.9736 9.32539 25.8176 8.49164H22.5249L22.5181 26.5147C22.4424 28.533 20.7812 30.1531 18.7447 30.1531C18.1455 30.1524 17.555 30.0092 17.0222 29.7352C16.4894 29.4612 16.0294 29.0643 15.6803 28.5774C15.0696 28.2572 14.5581 27.7763 14.2009 27.1865C13.8437 26.5968 13.6545 25.9206 13.6538 25.231C13.655 24.2287 14.0536 23.2679 14.7624 22.5592C15.471 21.8505 16.4319 21.4518 17.4342 21.4507C17.8231 21.4507 18.1963 21.5145 18.5496 21.6258V18.0994C14.0752 18.2044 10.4675 21.8734 10.4675 26.3728C10.4675 28.5486 11.3129 30.5294 12.6903 32.0088C14.0789 32.9864 15.736 33.5103 17.4342 33.5088C21.9986 33.5088 25.7113 29.7954 25.7113 25.231Z" fill="white"/>
</g>
<defs>
<clipPath id="clip0_64_817">
<rect width="42" height="42" fill="white"/>
</clipPath>
</defs>
</svg>
